<mxfile host="app.diagrams.net" agent="Mozilla/5.0 (Windows NT 10.0; Win64; x64) AppleWebKit/537.36 (KHTML, like Gecko) Chrome/141.0.0.0 Safari/537.36" version="28.2.7" pages="2">
  <diagram name="Página-1" id="0KM3G7sHCjUT2Cex7Lo9">
    <mxGraphModel dx="512" dy="1748" grid="1" gridSize="10" guides="1" tooltips="1" connect="1" arrows="1" fold="1" page="1" pageScale="1" pageWidth="827" pageHeight="1169" math="0" shadow="0">
      <root>
        <mxCell id="0" />
        <mxCell id="1" parent="0" />
        <mxCell id="1ZzBEba-X88Xde9dYdnH-9" value="AWS" style="ellipse;shape=cloud;whiteSpace=wrap;html=1;" vertex="1" parent="1">
          <mxGeometry x="80" y="-320" width="180" height="110" as="geometry" />
        </mxCell>
        <mxCell id="1ZzBEba-X88Xde9dYdnH-3" value="D- EBS" style="outlineConnect=0;dashed=0;verticalLabelPosition=bottom;verticalAlign=top;align=center;html=1;shape=mxgraph.aws3.volume;fillColor=#E05243;gradientColor=none;" vertex="1" parent="1">
          <mxGeometry x="158.36" y="-165.5" width="52.5" height="75" as="geometry" />
        </mxCell>
        <mxCell id="1ZzBEba-X88Xde9dYdnH-7" style="edgeStyle=none;curved=1;rounded=0;orthogonalLoop=1;jettySize=auto;html=1;fontSize=12;startSize=8;endSize=8;" edge="1" parent="1" source="1ZzBEba-X88Xde9dYdnH-4" target="1ZzBEba-X88Xde9dYdnH-3">
          <mxGeometry relative="1" as="geometry" />
        </mxCell>
        <mxCell id="1ZzBEba-X88Xde9dYdnH-8" value="Envia Arquivo&lt;div&gt;&lt;br&gt;&lt;/div&gt;" style="edgeLabel;html=1;align=center;verticalAlign=middle;resizable=0;points=[];fontSize=12;" vertex="1" connectable="0" parent="1ZzBEba-X88Xde9dYdnH-7">
          <mxGeometry x="-0.2022" y="-2" relative="1" as="geometry">
            <mxPoint x="1" as="offset" />
          </mxGeometry>
        </mxCell>
        <mxCell id="1ZzBEba-X88Xde9dYdnH-4" value="" style="verticalLabelPosition=bottom;aspect=fixed;html=1;shape=mxgraph.salesforce.web;fillColorStyles=fillColor2,fillColor3,fillColor4;fillColor2=#032d60;fillColor3=#0d9dda;fillColor4=#ffffff;fillColor=none;strokeColor=none;" vertex="1" parent="1">
          <mxGeometry x="152.96" y="100" width="63.29" height="50" as="geometry" />
        </mxCell>
        <mxCell id="1ZzBEba-X88Xde9dYdnH-5" value="Ator&lt;div&gt;&lt;br&gt;&lt;/div&gt;" style="verticalLabelPosition=bottom;html=1;verticalAlign=top;strokeWidth=1;align=center;outlineConnect=0;dashed=0;outlineConnect=0;shape=mxgraph.aws3d.end_user;strokeColor=none;fillColor=#777777;aspect=fixed;" vertex="1" parent="1">
          <mxGeometry x="520" y="80.00000000000001" width="49" height="100.46" as="geometry" />
        </mxCell>
        <mxCell id="1ZzBEba-X88Xde9dYdnH-6" style="edgeStyle=none;curved=1;rounded=0;orthogonalLoop=1;jettySize=auto;html=1;entryX=1;entryY=0.639;entryDx=0;entryDy=0;entryPerimeter=0;fontSize=12;startSize=8;endSize=8;" edge="1" parent="1" source="1ZzBEba-X88Xde9dYdnH-5" target="1ZzBEba-X88Xde9dYdnH-4">
          <mxGeometry relative="1" as="geometry" />
        </mxCell>
        <mxCell id="1ZzBEba-X88Xde9dYdnH-11" value="EC2" style="verticalLabelPosition=bottom;html=1;verticalAlign=top;strokeWidth=1;align=center;outlineConnect=0;dashed=0;outlineConnect=0;shape=mxgraph.aws3d.application_server;fillColor=#ECECEC;strokeColor=#5E5E5E;aspect=fixed;strokeColor2=#292929;" vertex="1" parent="1">
          <mxGeometry x="520" y="-190" width="123" height="124" as="geometry" />
        </mxCell>
        <mxCell id="1ZzBEba-X88Xde9dYdnH-15" style="edgeStyle=none;curved=1;rounded=0;orthogonalLoop=1;jettySize=auto;html=1;entryX=1;entryY=0.5;entryDx=0;entryDy=0;entryPerimeter=0;fontSize=12;startSize=8;endSize=8;" edge="1" parent="1" source="1ZzBEba-X88Xde9dYdnH-11" target="1ZzBEba-X88Xde9dYdnH-3">
          <mxGeometry relative="1" as="geometry" />
        </mxCell>
        <mxCell id="1ZzBEba-X88Xde9dYdnH-17" style="edgeStyle=none;curved=1;rounded=0;orthogonalLoop=1;jettySize=auto;html=1;fontSize=12;startSize=8;endSize=8;" edge="1" parent="1" source="1ZzBEba-X88Xde9dYdnH-16" target="1ZzBEba-X88Xde9dYdnH-11">
          <mxGeometry relative="1" as="geometry" />
        </mxCell>
        <mxCell id="1ZzBEba-X88Xde9dYdnH-16" value="E - EBS&lt;div&gt;&lt;br&gt;&lt;/div&gt;" style="outlineConnect=0;dashed=0;verticalLabelPosition=bottom;verticalAlign=top;align=center;html=1;shape=mxgraph.aws3.volume;fillColor=#E05243;gradientColor=none;" vertex="1" parent="1">
          <mxGeometry x="870" y="-170" width="52.5" height="75" as="geometry" />
        </mxCell>
        <mxCell id="1ZzBEba-X88Xde9dYdnH-19" value="" style="outlineConnect=0;dashed=0;verticalLabelPosition=bottom;verticalAlign=top;align=center;html=1;shape=mxgraph.aws3.rds;fillColor=#2E73B8;gradientColor=none;" vertex="1" parent="1">
          <mxGeometry x="710" y="-320" width="65" height="81" as="geometry" />
        </mxCell>
        <mxCell id="1ZzBEba-X88Xde9dYdnH-20" style="edgeStyle=none;curved=1;rounded=0;orthogonalLoop=1;jettySize=auto;html=1;entryX=0;entryY=0.5;entryDx=0;entryDy=0;entryPerimeter=0;fontSize=12;startSize=8;endSize=8;" edge="1" parent="1" source="1ZzBEba-X88Xde9dYdnH-11" target="1ZzBEba-X88Xde9dYdnH-19">
          <mxGeometry relative="1" as="geometry" />
        </mxCell>
        <mxCell id="1ZzBEba-X88Xde9dYdnH-21" value="ROS&lt;div&gt;&lt;br&gt;&lt;/div&gt;" style="edgeLabel;html=1;align=center;verticalAlign=middle;resizable=0;points=[];fontSize=12;" vertex="1" connectable="0" parent="1ZzBEba-X88Xde9dYdnH-20">
          <mxGeometry x="-0.2675" y="4" relative="1" as="geometry">
            <mxPoint as="offset" />
          </mxGeometry>
        </mxCell>
        <mxCell id="1ZzBEba-X88Xde9dYdnH-22" style="edgeStyle=none;curved=1;rounded=0;orthogonalLoop=1;jettySize=auto;html=1;entryX=0.095;entryY=0.525;entryDx=0;entryDy=0;entryPerimeter=0;fontSize=12;startSize=8;endSize=8;" edge="1" parent="1" source="1ZzBEba-X88Xde9dYdnH-9" target="1ZzBEba-X88Xde9dYdnH-9">
          <mxGeometry relative="1" as="geometry" />
        </mxCell>
      </root>
    </mxGraphModel>
  </diagram>
  <diagram id="k_53RtwUiso1ly_kNfzp" name="Página-2">
    <mxGraphModel dx="512" dy="579" grid="0" gridSize="10" guides="1" tooltips="1" connect="1" arrows="1" fold="1" page="0" pageScale="1" pageWidth="827" pageHeight="1169" math="0" shadow="0">
      <root>
        <mxCell id="0" />
        <mxCell id="1" parent="0" />
      </root>
    </mxGraphModel>
  </diagram>
</mxfile>
